<?xml version="1.0" standalone="no"?><!DOCTYPE svg PUBLIC "-//W3C//DTD SVG 1.1//EN" "http://www.w3.org/Graphics/SVG/1.1/DTD/svg11.dtd"><svg t="1586485649332" class="icon" viewBox="0 0 1024 1024" version="1.1" xmlns="http://www.w3.org/2000/svg" p-id="2163" width="32" height="32" xmlns:xlink="http://www.w3.org/1999/xlink"><defs><style type="text/css"></style></defs><path d="M547.726222 690.782815l53.665185 53.646222a101.129481 101.129481 0 1 0 143.03763-143.03763l-53.665185-53.646222-143.03763 143.03763z m53.665185-411.211852l-321.801481 321.820444a101.129481 101.129481 0 1 0 143.018667 143.03763l321.801481-321.820444a101.129481 101.129481 0 1 0-143.018667-143.03763zM529.882074 386.844444c9.860741-9.860741 25.884444-9.860741 35.745185 0l71.528297 71.528297c9.860741 9.860741 9.860741 25.865481 0 35.745185L494.117926 637.155556c-9.860741 9.860741-25.884444 9.860741-35.745185 0L386.844444 565.627259a25.27763 25.27763 0 0 1 0-35.745185l143.03763-143.03763z m17.882074 53.646223l-107.273481 107.273481 35.745185 35.745185 107.273481-107.273481-35.745185-35.745185z m-125.155555-160.919704a101.129481 101.129481 0 1 0-143.03763 143.03763l53.627259 53.627259L297.453037 512l-53.627259-53.608296a151.703704 151.703704 0 1 1 214.546963-214.546963l53.608296 53.627259 53.665185-53.627259a151.703704 151.703704 0 1 1 214.528 214.546963l-53.646222 53.608296 53.665185 53.665185a151.703704 151.703704 0 1 1-214.565926 214.528L512 726.528l-53.608296 53.665185a151.703704 151.703704 0 1 1-214.546963-214.565926l232.391111-232.429037-53.608296-53.627259z" p-id="2164" fill="#1296db"></path></svg>